<?xml version="1.0" standalone="no"?>
<!DOCTYPE svg PUBLIC "-//W3C//DTD SVG 20010904//EN"
 "http://www.w3.org/TR/2001/REC-SVG-20010904/DTD/svg10.dtd">
<svg version="1.0" xmlns="http://www.w3.org/2000/svg"
 width="669.000000pt" height="669.000000pt" viewBox="0 0 669.000000 669.000000"
 preserveAspectRatio="xMidYMid meet">
<metadata>
Created by potrace 1.11, written by Peter Selinger 2001-2013
</metadata>
<g transform="translate(0.000000,669.000000) scale(0.100000,-0.100000)"
fill="#000000" stroke="none">
<path d="M2693 6484 c-90 -19 -145 -45 -348 -162 -99 -58 -189 -110 -200 -116
-71 -41 -252 -144 -278 -160 -18 -10 -250 -144 -517 -298 -474 -274 -554 -320
-595 -345 -11 -7 -27 -16 -35 -20 -43 -21 -360 -208 -390 -230 -65 -48 -169
-163 -211 -234 -48 -81 -94 -210 -105 -295 -10 -77 -10 -2490 0 -2569 10 -82
55 -208 104 -291 78 -133 178 -224 357 -326 129 -74 144 -82 275 -158 69 -40
139 -80 155 -90 264 -152 467 -269 585 -338 80 -47 159 -92 175 -100 17 -9 53
-31 82 -49 29 -18 54 -33 57 -33 3 0 109 -61 237 -136 461 -269 518 -296 669
-323 88 -15 1192 -12 1283 4 122 21 206 56 377 157 19 11 141 81 270 156 129
74 276 158 325 187 50 29 106 62 125 73 19 11 64 37 100 57 107 63 169 98 236
135 35 19 69 41 76 48 6 6 15 12 19 12 7 0 97 51 444 252 39 23 87 52 107 65
21 12 40 23 42 23 3 0 46 25 97 55 50 30 93 55 96 55 9 0 70 49 126 100 125
115 217 287 243 450 4 25 8 605 9 1290 1 1319 1 1322 -46 1448 -56 154 -157
289 -284 380 -34 24 -277 167 -425 250 -39 22 -303 174 -780 451 -69 40 -132
76 -140 82 -8 5 -118 68 -245 140 -126 73 -309 178 -405 233 -335 195 -252
179 -995 181 -468 1 -624 -1 -672 -11z m847 -1903 c270 -45 506 -168 699 -362
128 -129 262 -360 307 -529 54 -207 56 -495 4 -660 -6 -19 -13 -42 -15 -51
-10 -44 -71 -183 -113 -254 -117 -200 -305 -381 -499 -478 -362 -184 -764
-189 -1123 -14 -128 62 -225 132 -330 237 -178 178 -280 362 -341 615 -34 143
-32 428 5 548 8 26 12 47 10 47 -8 0 50 149 87 224 86 170 204 314 354 431
154 120 372 217 540 241 22 4 58 9 80 13 56 10 257 5 335 -8z"/>
</g>
</svg>
